<svg width="603" height="241" viewBox="0 0 603 241" fill="none" xmlns="http://www.w3.org/2000/svg">
<path d="M585.885 9.53674e-05C576.982 9.53674e-05 569.765 7.5849 569.765 16.9413C569.765 26.2976 576.982 33.8824 585.885 33.8824C594.788 33.8824 602.005 26.2976 602.005 16.9413C602.005 7.5849 594.788 9.53674e-05 585.885 9.53674e-05Z" fill="#FFE2A1"/>
<path d="M438.656 109.176C429.16 109.176 421.462 116.761 421.462 126.118C421.462 135.474 429.16 143.059 438.656 143.059C448.152 143.059 455.851 135.474 455.851 126.118C455.851 116.761 448.152 109.176 438.656 109.176Z" fill="#FFE2A1"/>
<path d="M292.503 9.53674e-05C283.007 9.53674e-05 275.309 7.5849 275.309 16.9413C275.309 26.2976 283.007 33.8824 292.503 33.8824C302 33.8824 309.698 26.2976 309.698 16.9413C309.698 7.5849 302 9.53674e-05 292.503 9.53674e-05Z" fill="#FFE2A1"/>
<path d="M585.418 16.9412L586.959 19.015L438.315 129.82L292.57 20.9711L144.83 181.58L144.565 181.689L1.18427 240.941L0.199036 238.551L143.317 179.408L292.249 17.5049L438.317 126.596L585.418 16.9412Z" fill="#FFE2A1"/>
</svg>
