<svg width="11" height="23" viewBox="0 0 11 23" fill="none" xmlns="http://www.w3.org/2000/svg">
              <path d="M259.926,25.817c-5.716-5.584-14.466-10.501-26.125-14.621C213.361,3.976,186.265,0,157.5,0&#9;&#9;c-20.121,0-39.859,2.016-57.076,5.831c-7.183,1.592-13.653,3.396-19.226,5.365c-6.186,2.186-11.55,4.626-16.101,7.26&#9;&#9;c-9.494,5.496-16.294,15.491-17.405,26.452c-0.086,0.85-0.152,1.703-0.152,2.558c0,0,0.269-0.499,0.753-1.317&#9;&#9;c0.653-1.103,1.72-2.809,3.136-4.796c4.4-6.17,10.055-11.755,16.573-15.659c4.964-2.974,10.333-5.254,15.78-7.179&#9;&#9;c4.659-1.644,10.043-3.167,15.964-4.551c1.675,2.336,2.561,4.672,2.561,6.963c0,4.135-2.703,7.708-5.598,10.402&#9;&#9;c-4.502,4.19-10.126,7.143-15.724,9.582c-7.655,3.334-15.702,5.69-23.811,7.629c-9.013,2.156-18.388,2.951-27.637,3.14&#9;&#9;c-7.264,0.149-14.543-0.129-21.777-0.812c-2.187-0.207-4.384-0.422-6.555-0.764c0,0-1.205,7.668-1.205,7.668&#9;&#9;c0.726,0.114,11.42,1.755,25.791,1.755c6.665,0,14.131-0.389,21.749-1.41c0,0,0,14.967,0,14.968c0,3.984,1.418,7.789,3.657,11.05&#9;&#9;c0.942,1.372,2.04,2.622,3.15,3.86c6.029,6.722,15.146,10.606,23.362,13.869c24.995,9.926,53.097,12.576,79.791,12.576&#9;&#9;c17.901,0,35.863-1.378,53.41-5.021c15.949-3.311,33.554-7.932,46.403-18.475c1.577-1.294,3.07-2.691,4.416-4.225&#9;&#9;c3.662-4.172,5.53-9.614,5.53-15.165c0,0-0.341-34.248-0.55-34.992c-0.598,1.346-4.012,6.045-4.763,6.994&#9;&#9;c-2.468,3.122-5.255,5.99-8.296,8.556c-6.669,5.628-14.271,9.195-22.434,12.079c-4.659,1.644-10.043,3.167-15.964,4.551&#9;&#9;c-1.675-2.336-2.561-4.672-2.561-6.963c0-10.084,13.386-16.494,21.041-19.859c16.039-7.05,33.778-10.631,51.262-10.901&#9;&#9;c9.551-0.147,19.344,0.042,28.801,1.582c0,0,1.205-7.668,1.205-7.668C313.828,24.748,286.599,20.607,259.926,25.817z&#9;&#9; M110.07,20.928c0-2.965-0.839-5.859-2.323-8.673c15.294-2.939,32.356-4.492,49.753-4.492c22.927,0,44.624,2.615,62.545,7.38&#9;&#9;L82.528,63.722c-7.365-2.696-13.442-5.754-17.988-9.028C93.572,47.062,110.07,34.939,110.07,20.928z M214.574,76.875l0,0.002&#9;&#9;c7.183-1.592,13.653-3.396,19.226-5.365c6.187-2.186,11.552-4.626,16.103-7.26c3.396-2.117,6.443-4.681,9.034-7.59v17.117&#9;&#9;c0,2.688-0.89,5.299-2.596,7.377c-4.399,5.36-13.03,10.495-25.127,14.77c-5.278,1.863-11.443,3.58-18.32,5.106&#9;&#9;c-16.674,3.694-35.828,5.648-55.395,5.648c-27.906,0-54.088-3.819-73.717-10.753c-11.371-4.018-19.85-8.89-24.519-14.094&#9;&#9;l-0.411-0.455c-2.356-2.769-3.55-5.555-3.55-8.289V57.123c5.717,5.489,14.394,10.326,25.895,14.389&#9;&#9;c20.439,7.221,47.538,11.197,76.302,11.197C177.622,82.708,197.359,80.692,214.574,76.875z M204.928,61.78&#9;&#9;c0,2.965,0.839,5.859,2.323,8.674c-15.292,2.939-32.353,4.492-49.751,4.492c-22.927,0-44.625-2.615-62.547-7.38l137.517-48.58&#9;&#9;c7.365,2.696,13.442,5.754,17.989,9.028C221.425,35.645,204.928,47.769,204.928,61.78z"/>  
</svg>
