<svg width="39" height="19" viewBox="0 0 39 19" fill="none" xmlns="http://www.w3.org/2000/svg">
<path d="M38.486 2.88695C36.9997 1.05802 32.3766 0.48358 27.2114 2.68817C26.5018 2.98278 25.8125 3.3056 25.1462 3.65534C24.4777 1.55082 22.2323 0 19.5745 0C17.3692 0 15.4497 1.0684 14.4761 2.63537C14.8574 2.83128 15.2234 3.04433 15.5722 3.27345C16.2869 1.95024 17.8116 1.0345 19.5745 1.0345C21.8049 1.0345 23.6557 2.50045 23.9639 4.40134C23.2225 4.95965 22.6462 5.60303 21.7393 6.61517C21.5951 6.77658 21.4405 6.94724 21.2765 7.12987C21.0205 7.19666 20.7751 7.2857 20.5453 7.39531C20.103 7.59951 19.7563 7.90685 19.5551 8.27299C19.549 8.28452 19.5432 8.29467 19.5386 8.3062C19.5342 8.29467 19.5285 8.28452 19.5225 8.27299C19.5225 8.27299 19.5225 8.26952 19.5195 8.26838C19.3616 8.00217 19.132 7.765 18.8459 7.57267C18.5599 7.38033 18.224 7.23724 17.8606 7.15294C17.8116 7.13911 17.7611 7.12526 17.7088 7.11257C17.5495 6.93686 17.4021 6.77151 17.2622 6.61517C16.6433 5.86711 15.944 5.16051 15.1717 4.50281C14.805 4.21683 14.407 3.95583 13.9821 3.72267C13.2776 3.3448 12.5453 2.99884 11.7887 2.68657C6.62343 0.481968 2.00034 1.05641 0.51421 2.88535C-0.609954 4.26897 0.389273 6.29138 0.870203 7.09666C1.8231 8.68785 3.33882 9.96955 5.07632 10.6623C5.22682 10.3365 5.42626 10.0253 5.67055 9.73526C4.20384 9.14606 2.91289 8.04308 2.08793 6.6636C1.46023 5.6148 1.01607 4.21433 1.65033 3.4351C2.78616 2.0381 6.86913 1.76828 11.141 3.59122C12.0858 3.96183 12.9775 4.40812 13.8012 4.92274C13.8207 4.93543 13.8398 4.94788 13.8577 4.96171C14.5574 5.44184 15.0713 5.98998 15.9052 6.91932C15.8143 6.91932 15.7235 6.92049 15.6326 6.92279C15.1697 6.93482 14.7084 6.97204 14.2523 7.03417C13.3185 7.16239 12.4058 7.36925 11.5305 7.65105C10.37 8.01234 9.2876 8.50774 8.32029 9.12024C8.00899 9.32168 7.7169 9.54017 7.44631 9.774C7.30792 9.89461 7.18119 10.0152 7.0682 10.1347C6.78925 10.4197 6.57016 10.7368 6.41899 11.0744C6.24949 11.4373 6.22103 11.8305 6.3371 12.2057C6.36262 12.287 6.39641 12.3666 6.43812 12.4437C6.97136 13.4383 9.39245 14.3506 11.3607 14.3506C11.5066 14.3506 11.6498 14.3449 11.7896 14.3345C12.4635 14.3014 13.106 14.1034 13.624 13.7692C13.9215 13.5671 14.1591 13.318 14.3207 13.0387C14.4377 13.5038 14.6112 13.9593 14.839 14.3993C16.1685 16.9804 19.0141 18.6714 19.1704 18.7635L19.5754 19L19.9804 18.7635C20.1352 18.6727 22.9225 17.0162 24.2687 14.482C23.8668 14.1796 23.5476 13.8178 23.3304 13.4183C23.2264 13.689 23.1007 13.9545 22.9539 14.2132C20.7106 14.4259 18.4421 14.4259 16.1987 14.2132C16.0212 13.901 15.8748 13.5788 15.7608 13.2495C15.5993 12.7893 15.5138 12.3153 15.5065 11.8386C15.7536 11.8686 16.008 11.8949 16.2672 11.9191C18.4186 12.1067 20.5902 12.1106 22.7428 11.9306C22.638 11.716 22.4767 11.5205 22.2693 11.3564C22.0617 11.1923 21.8123 11.0631 21.5369 10.9771C20.9006 11.0105 20.2413 11.0287 19.5756 11.0287C18.8685 11.0287 18.1685 11.0082 17.4956 10.9702H17.4897C16.8046 10.9312 16.1497 10.8726 15.542 10.7967C15.542 10.7693 15.545 10.7428 15.5465 10.7163C16.3015 10.018 17.2783 9.82843 18.0689 9.67437C18.7151 9.54802 19.272 9.44009 19.5296 9.04598C19.5324 9.04021 19.5368 9.03444 19.5399 9.02892C19.5428 9.03444 19.5472 9.04021 19.5503 9.04598C19.7724 9.38843 20.2234 9.51481 20.7608 9.62503C20.8427 9.64116 20.9261 9.65824 21.0109 9.67437C21.096 9.69052 21.1903 9.70897 21.2821 9.72835C21.9057 9.83403 22.4943 10.0382 23.0107 10.3279C23.237 10.4634 23.4398 10.6209 23.6137 10.7965C23.8998 11.0869 24.1226 11.4113 24.2734 11.757C24.278 11.7683 24.2837 11.78 24.2897 11.7913C24.3872 12.013 24.4658 12.2394 24.5248 12.4691C24.5822 12.6947 24.6775 12.9137 24.8083 13.1203C25.2622 13.8244 26.1187 14.2482 27.2872 14.3345C27.4272 14.3449 27.5703 14.3506 27.7162 14.3506C29.6844 14.3506 32.1056 13.4383 32.6385 12.4437C32.8637 11.9995 32.8685 11.5069 32.6521 11.0601C32.5789 10.8944 32.4868 10.7341 32.3766 10.5811C32.2649 10.4217 32.1379 10.2689 31.9971 10.1238C31.8868 10.0085 31.7646 9.89069 31.6307 9.77469C30.4883 8.84324 29.0931 8.11826 27.5451 7.65173C26.2246 7.21196 24.8112 6.96189 23.3744 6.9138C23.2848 6.9115 23.1926 6.9115 23.1032 6.9115C23.9328 5.98792 24.4448 5.44207 25.1418 4.9631C25.2087 4.91699 25.2772 4.87086 25.3472 4.82751C26.1337 4.35827 26.9741 3.94532 27.8579 3.59376C32.1283 1.77082 36.214 2.04063 37.3486 3.43764C37.9828 4.21756 37.5379 5.61688 36.9106 6.66613C36.0861 8.0456 34.7951 9.1486 33.327 9.7378C33.449 9.88299 33.5602 10.0334 33.6604 10.1882C33.7611 10.3425 33.8486 10.5018 33.9227 10.6648C35.6585 9.97302 37.1758 8.69015 38.1272 7.0992C38.6108 6.29301 39.61 4.26991 38.486 2.88695ZM19.5745 15.4089C20.4768 15.4089 21.3553 15.3789 22.1934 15.3192C21.4661 16.1954 20.5847 16.9895 19.5745 17.6787C18.5652 16.9891 17.6843 16.195 16.957 15.3192C17.7951 15.3784 18.672 15.4089 19.5745 15.4089ZM11.6605 13.3067C10.2876 13.4077 8.7244 12.8551 8.02318 12.3785C7.87785 12.2898 7.7594 12.1776 7.67617 12.0499C7.62088 11.9201 7.5999 11.7831 7.61449 11.6469C7.62907 11.5108 7.6789 11.3783 7.76105 11.2573C7.93482 10.9658 8.16679 10.6972 8.44852 10.4612C8.54685 10.3761 8.65119 10.291 8.76117 10.2075C9.03763 9.99874 9.33376 9.80606 9.64712 9.63102C10.3891 9.2168 11.193 8.87309 12.0416 8.60736C13.0203 8.28806 14.0532 8.07839 15.1089 7.98473C15.3661 7.96355 15.6245 7.95285 15.8831 7.95267C16.0185 7.95267 16.1521 7.95614 16.2821 7.96305L16.3446 7.96652C16.9193 7.97181 17.4797 8.10507 17.9586 8.35025C18.008 8.43134 18.0512 8.51458 18.0881 8.59953C17.9751 8.62466 17.8489 8.65002 17.7413 8.67055C16.8165 8.85088 15.3277 9.14053 14.2675 10.3053L14.2421 10.303C14.2403 10.3137 14.2393 10.3245 14.2391 10.3353C14.2391 10.3353 14.2391 10.3353 14.2391 10.3374C13.7423 10.9204 13.4035 11.5749 13.2432 12.2616C13.0722 12.8994 12.5554 13.2412 11.6605 13.3067ZM27.0356 8.60806C28.2533 8.97872 29.3691 9.52402 30.3236 10.2152C30.4308 10.2956 30.5328 10.3784 30.6272 10.4612C30.739 10.5588 30.8403 10.654 30.9298 10.7495C31.082 10.9054 31.2108 11.0742 31.3138 11.2526C31.3968 11.3743 31.4472 11.5075 31.4621 11.6445C31.4769 11.7814 31.4558 11.9193 31.4001 12.0499C31.1366 12.5415 29.1285 13.4335 27.414 13.3067C26.5194 13.2412 26.0027 12.8999 25.8359 12.2634C25.7298 11.8442 25.5651 11.4352 25.3445 11.0435V11.04C25.3445 11.04 25.3445 11.04 25.3445 11.0377C25.2519 10.8765 25.1469 10.7196 25.0304 10.568C23.9656 9.18434 22.3294 8.86541 21.3391 8.67239C21.3093 8.66663 21.2794 8.65995 21.2453 8.65418L21.0771 8.61959C20.9996 8.60344 20.9252 8.58753 20.8598 8.5714C20.8994 8.52248 20.9459 8.47701 20.9981 8.43579C21.015 8.42156 21.0329 8.40816 21.052 8.39566C21.4106 8.14408 22.0494 7.98657 22.8753 7.95568C24.3064 7.94145 25.7251 8.16419 27.0356 8.60806Z" fill="#FBBD00"/>
</svg>
