<svg width="14" height="11" viewBox="0 0 14 11" fill="none" xmlns="http://www.w3.org/2000/svg">
<mask id="path-1-inside-1_1_1198" fill="white">
<path d="M14 0V0.297297L8.66667 6.24324V11H5.33333V6.24324L0 0.297297V0H14Z"/>
</mask>
<path d="M14 0V0.297297L8.66667 6.24324V11H5.33333V6.24324L0 0.297297V0H14Z" fill="#3F3D56"/>
<path d="M14 0H47.3333V-33.3333H14V0ZM14 0.297297L38.8138 22.5545L47.3333 13.0564V0.297297H14ZM8.66667 6.24324L-16.1472 -16.014L-24.6667 -6.5159V6.24324H8.66667ZM8.66667 11V44.3333H42V11H8.66667ZM5.33333 11H-28V44.3333H5.33333V11ZM5.33333 6.24324H38.6667V-6.5159L30.1472 -16.014L5.33333 6.24324ZM0 0.297297H-33.3333V13.0564L-24.8138 22.5545L0 0.297297ZM0 0V-33.3333H-33.3333V0H0ZM-19.3333 0V0.297297H47.3333V0H-19.3333ZM-10.8138 -21.9599L-16.1472 -16.014L33.4805 28.5005L38.8138 22.5545L-10.8138 -21.9599ZM-24.6667 6.24324V11H42V6.24324H-24.6667ZM8.66667 -22.3333H5.33333V44.3333H8.66667V-22.3333ZM38.6667 11V6.24324H-28V11H38.6667ZM30.1472 -16.014L24.8138 -21.96L-24.8138 22.5545L-19.4805 28.5005L30.1472 -16.014ZM33.3333 0.297297V0H-33.3333V0.297297H33.3333ZM0 33.3333H14V-33.3333H0V33.3333Z" fill="#3F3D56" mask="url(#path-1-inside-1_1_1198)"/>
</svg>
